# MagicaVoxel @ Ephtracy

# group
o 

# material
mtllib Ninja.mtl
usemtl palette

# normals
vn -1 0 0
vn 1 0 0
vn 0 0 1
vn 0 0 -1
vn 0 -1 0
vn 0 1 0

# texcoords
vt 0.0605469 0.5
vt 0.615234 0.5
vt 0.990234 0.5
vt 0.994141 0.5

# verts
v -0.2 -0.2 0.2
v -0.2 -0.2 -0.2
v -0.2 0 0.2
v -0.2 0 -0.2
v -0.2 0.1 0.2
v -0.2 0.1 -0.2
v -0.2 0.2 0.2
v -0.2 0.2 -0.2
v 0.1 -0.1 0.3
v 0.1 -0.1 0.2
v 0.1 -0.1 -0.2
v 0.1 -0.1 -0.3
v 0.1 0 0.3
v 0.1 0 0.2
v 0.1 0 -0.2
v 0.1 0 -0.3
v 0.2 -0.2 0.2
v 0.2 -0.2 -0.2
v 0.2 -0.1 0.2
v 0.2 -0.1 -0.2
v 0.2 0 0.2
v 0.2 0 -0.2
v 0.2 0.1 0.2
v 0.2 0.1 0.1
v 0.2 0.1 -0.1
v 0.2 0.1 -0.2
v 0.2 0.2 0.2
v 0.2 0.2 0.1
v 0.2 0.2 -0.1
v 0.2 0.2 -0.2
v 0.3 -0.1 0.3
v 0.3 -0.1 0.2
v 0.3 -0.1 -0.2
v 0.3 -0.1 -0.3
v 0.3 0 0.3
v 0.3 0 0.2
v 0.3 0 -0.2
v 0.3 0 -0.3
v 0.3 0.1 0.1
v 0.3 0.1 -0.1
v 0.3 0.2 0.1
v 0.3 0.2 -0.1
v 0.1 -0.1 0.3
v 0.1 0 0.3
v 0.3 -0.1 0.3
v 0.3 0 0.3
v -0.2 -0.2 0.2
v -0.2 0 0.2
v -0.2 0.1 0.2
v -0.2 0.2 0.2
v -0.1 0 0.2
v -0.1 0.1 0.2
v 0 -0.2 0.2
v 0 -0.1 0.2
v 0 0 0.2
v 0 0.1 0.2
v 0.1 -0.1 0.2
v 0.1 0 0.2
v 0.2 -0.2 0.2
v 0.2 -0.1 0.2
v 0.2 0 0.2
v 0.2 0.1 0.2
v 0.2 0.2 0.2
v 0.2 0.1 0.1
v 0.2 0.2 0.1
v 0.3 0.1 0.1
v 0.3 0.2 0.1
v 0.2 -0.1 -0.2
v 0.2 0 -0.2
v 0.3 -0.1 -0.2
v 0.3 0 -0.2
v 0.2 -0.1 0.2
v 0.2 0 0.2
v 0.3 -0.1 0.2
v 0.3 0 0.2
v 0.2 0.1 -0.1
v 0.2 0.2 -0.1
v 0.3 0.1 -0.1
v 0.3 0.2 -0.1
v -0.2 -0.2 -0.2
v -0.2 0 -0.2
v -0.2 0.1 -0.2
v -0.2 0.2 -0.2
v -0.1 0 -0.2
v -0.1 0.1 -0.2
v 0 -0.2 -0.2
v 0 -0.1 -0.2
v 0 0 -0.2
v 0 0.1 -0.2
v 0.1 -0.1 -0.2
v 0.1 0 -0.2
v 0.2 -0.2 -0.2
v 0.2 -0.1 -0.2
v 0.2 0 -0.2
v 0.2 0.1 -0.2
v 0.2 0.2 -0.2
v 0.1 -0.1 -0.3
v 0.1 0 -0.3
v 0.3 -0.1 -0.3
v 0.3 0 -0.3
v -0.2 -0.2 0.2
v 0 -0.2 0.2
v 0.2 -0.2 0.2
v -0.1 -0.2 0.1
v 0 -0.2 0.1
v -0.1 -0.2 -0.1
v 0 -0.2 -0.1
v -0.2 -0.2 -0.2
v 0 -0.2 -0.2
v 0.2 -0.2 -0.2
v 0.1 -0.1 0.3
v 0.3 -0.1 0.3
v 0.1 -0.1 0.2
v 0.2 -0.1 0.2
v 0.3 -0.1 0.2
v 0.1 -0.1 -0.2
v 0.2 -0.1 -0.2
v 0.3 -0.1 -0.2
v 0.1 -0.1 -0.3
v 0.3 -0.1 -0.3
v 0.2 0.1 0.1
v 0.3 0.1 0.1
v 0.2 0.1 -0.1
v 0.3 0.1 -0.1
v 0.1 0 0.3
v 0.3 0 0.3
v 0.1 0 0.2
v 0.2 0 0.2
v 0.3 0 0.2
v 0.1 0 -0.2
v 0.2 0 -0.2
v 0.3 0 -0.2
v 0.1 0 -0.3
v 0.3 0 -0.3
v -0.2 0.2 0.2
v 0.2 0.2 0.2
v 0.2 0.2 0.1
v 0.3 0.2 0.1
v 0.2 0.2 -0.1
v 0.3 0.2 -0.1
v -0.2 0.2 -0.2
v 0.2 0.2 -0.2

# faces
f 3/3/1 2/3/1 1/3/1
f 4/3/1 2/3/1 3/3/1
f 5/1/1 4/1/1 3/1/1
f 6/1/1 4/1/1 5/1/1
f 7/4/1 6/4/1 5/4/1
f 8/4/1 6/4/1 7/4/1
f 13/4/1 10/4/1 9/4/1
f 14/4/1 10/4/1 13/4/1
f 15/4/1 12/4/1 11/4/1
f 16/4/1 12/4/1 15/4/1
f 17/4/2 18/4/2 19/4/2
f 19/4/2 18/4/2 20/4/2
f 19/4/2 20/4/2 21/4/2
f 21/4/2 20/4/2 22/4/2
f 21/3/2 22/3/2 23/3/2
f 23/3/2 22/3/2 24/3/2
f 24/3/2 22/3/2 25/3/2
f 25/3/2 22/3/2 26/3/2
f 23/4/2 24/4/2 27/4/2
f 27/4/2 24/4/2 28/4/2
f 25/4/2 26/4/2 29/4/2
f 29/4/2 26/4/2 30/4/2
f 31/4/2 32/4/2 35/4/2
f 35/4/2 32/4/2 36/4/2
f 33/4/2 34/4/2 37/4/2
f 37/4/2 34/4/2 38/4/2
f 39/4/2 40/4/2 41/4/2
f 41/4/2 40/4/2 42/4/2
f 45/4/3 44/4/3 43/4/3
f 46/4/3 44/4/3 45/4/3
f 51/3/3 48/3/3 47/3/3
f 51/1/3 49/1/3 48/1/3
f 52/4/3 50/4/3 49/4/3
f 52/1/3 49/1/3 51/1/3
f 53/3/3 51/3/3 47/3/3
f 54/3/3 51/3/3 53/3/3
f 55/2/3 52/2/3 51/2/3
f 55/3/3 51/3/3 54/3/3
f 56/4/3 50/4/3 52/4/3
f 56/2/3 52/2/3 55/2/3
f 57/3/3 55/3/3 54/3/3
f 57/4/3 54/4/3 53/4/3
f 57/3/3 56/3/3 55/3/3
f 58/3/3 56/3/3 57/3/3
f 59/4/3 57/4/3 53/4/3
f 60/4/3 57/4/3 59/4/3
f 61/3/3 56/3/3 58/3/3
f 62/4/3 50/4/3 56/4/3
f 62/3/3 56/3/3 61/3/3
f 63/4/3 50/4/3 62/4/3
f 66/4/3 65/4/3 64/4/3
f 67/4/3 65/4/3 66/4/3
f 70/4/3 69/4/3 68/4/3
f 71/4/3 69/4/3 70/4/3
f 72/4/4 73/4/4 74/4/4
f 74/4/4 73/4/4 75/4/4
f 76/4/4 77/4/4 78/4/4
f 78/4/4 77/4/4 79/4/4
f 80/3/4 81/3/4 84/3/4
f 81/1/4 82/1/4 84/1/4
f 82/4/4 83/4/4 85/4/4
f 84/1/4 82/1/4 85/1/4
f 80/3/4 84/3/4 86/3/4
f 86/3/4 84/3/4 87/3/4
f 84/2/4 85/2/4 88/2/4
f 87/3/4 84/3/4 88/3/4
f 85/4/4 83/4/4 89/4/4
f 88/2/4 85/2/4 89/2/4
f 87/3/4 88/3/4 90/3/4
f 86/4/4 87/4/4 90/4/4
f 88/3/4 89/3/4 90/3/4
f 90/3/4 89/3/4 91/3/4
f 86/4/4 90/4/4 92/4/4
f 92/4/4 90/4/4 93/4/4
f 91/3/4 89/3/4 94/3/4
f 89/4/4 83/4/4 95/4/4
f 94/3/4 89/3/4 95/3/4
f 95/4/4 83/4/4 96/4/4
f 97/4/4 98/4/4 99/4/4
f 99/4/4 98/4/4 100/4/4
f 104/3/5 102/3/5 101/3/5
f 105/4/5 103/4/5 102/4/5
f 105/3/5 102/3/5 104/3/5
f 106/3/5 104/3/5 101/3/5
f 106/4/5 105/4/5 104/4/5
f 107/4/5 103/4/5 105/4/5
f 107/4/5 105/4/5 106/4/5
f 108/3/5 106/3/5 101/3/5
f 108/3/5 107/3/5 106/3/5
f 109/4/5 103/4/5 107/4/5
f 109/3/5 107/3/5 108/3/5
f 110/4/5 103/4/5 109/4/5
f 113/4/5 112/4/5 111/4/5
f 114/4/5 112/4/5 113/4/5
f 115/4/5 112/4/5 114/4/5
f 119/4/5 117/4/5 116/4/5
f 119/4/5 118/4/5 117/4/5
f 120/4/5 118/4/5 119/4/5
f 123/4/5 122/4/5 121/4/5
f 124/4/5 122/4/5 123/4/5
f 125/4/6 126/4/6 127/4/6
f 127/4/6 126/4/6 128/4/6
f 128/4/6 126/4/6 129/4/6
f 130/4/6 131/4/6 133/4/6
f 131/4/6 132/4/6 133/4/6
f 133/4/6 132/4/6 134/4/6
f 135/4/6 136/4/6 137/4/6
f 135/4/6 137/4/6 139/4/6
f 137/4/6 138/4/6 139/4/6
f 139/4/6 138/4/6 140/4/6
f 135/4/6 139/4/6 141/4/6
f 141/4/6 139/4/6 142/4/6
